PathFileType	4	(X/Y/Z)	C:/Users/beibeiliu/ov580/test_trc/User3\sequence.20_training_dense_right.trc
DataRate	CameraRate	NumFrames	NumMarkers	Units	OrigDataRate	OrigDataStartFrame	OrigNumFrames
120	120	18	19	mm	120	87	346
Frame#	Time	ThumbCMC			ThumbMCP			ThumbIP			ThumbTip			IndexMCP			IndexPIP			IndexTip			MiddleMCP			MiddlePIP			MiddleTip			RingMCP			RingPIP			RingTip			PinkyMCP			PinkyPIP			PinkyTip			BackHand1			BackHand2			BackHand3	
		X0	Y0	Z0	X1	Y1	Z1	X2	Y2	Z2	X3	Y3	Z3	X4	Y4	Z4	X5	Y5	Z5	X6	Y6	Z6	X7	Y7	Z7	X8	Y8	Z8	X9	Y9	Z9	X10	Y10	Z10	X11	Y11	Z11	X12	Y12	Z12	X13	Y13	Z13	X14	Y14	Z14	X15	Y15	Z15	X16	Y16	Z16	X17	Y17	Z17	X18	Y18	Z18	
86	0.716667	195.913	-1.25009	-19.1418	195.107	16.2567	-47.6646	171.087	14.362	-73.7929	145.028	4.80707	-67.1067	178.705	-22.9755	-93.9092	163.997	-3.2649	-110.599	161.514	12.3844	-76.9838	160.991	-32.7121	-95.768	143.438	-7.60012	-109.131	148.524	3.51588	-69.805	142.153	-36.598	-88.2936	129.49	-10.9377	-95.1427	137.586	-0.0673154	-64.719	131.156	-40.2527	-69.0984	121.216	-18.5743	-82.0799	122.797	-4.38896	-56.3724	160.043	-51.7464	-35.0844	163.099	-56.5258	-3.88126	188.751	-38.7037	-26.0112	
87	0.725	192.957	4.0079	-15.4909	190.332	18.6435	-49.1196	167.476	18.027	-73.4552	142.169	1.62178	-65.5925	179.174	-19.3295	-92.7619	163.902	0.20759	-110.958	162.259	19.3545	-82.2577	164.388	-28.6267	-98.4457	147.873	-5.46201	-110.534	144.488	4.71664	-73.014	147.728	-35.1839	-88.4294	128.398	-13.5934	-95.7985	133.88	-0.350601	-66.77	132.558	-42.269	-70.7964	122.112	-21.4726	-82.9135	120.328	-7.97751	-54.4797	163.436	-52.0932	-33.5213	165.25	-51.664	-6.34504	189.54	-32.4979	-22.4672	
88	0.733333	189.405	10.6521	-13.7064	185.677	28.9915	-47.4503	164.202	22.0797	-69.2195	142.687	3.61	-64.0832	180.657	-13.1676	-91.2413	160.315	5.84706	-109.985	158.821	21.3593	-79.4496	165.374	-27.4485	-98.1008	146.831	-7.04695	-111.923	144.09	7.27581	-72.8913	153.557	-31.2592	-90.3115	131.656	-12.4252	-97.6424	132.525	-2.96824	-64.3828	140.271	-41.57	-71.0468	122.607	-23.2158	-84.9707	120.944	-8.91956	-55.8366	169.054	-45.3933	-38.4605	171.575	-48.0737	-8.97736	193.256	-25.9238	-24.5318	
89	0.741667	183.597	16.5148	-17.8963	175.516	34.2059	-44.7965	156.219	26.3656	-71.6159	139.438	6.29869	-66.4874	182.723	-3.84778	-91.1117	164.459	11.6082	-111.229	149.79	22.1478	-79.3057	170.39	-21.1578	-96.1943	147.958	-2.02518	-111.514	143.443	7.52955	-72.597	158.503	-29.1189	-91.1573	134.379	-17.2793	-99.9752	131.172	-1.67147	-70.2424	144.774	-43.5296	-74.3569	129.543	-27.4029	-88.5156	118.313	-13.2135	-63.1824	173.534	-44.0655	-35.4256	174.06	-46.6424	-8.83606	196.117	-17.1617	-26.311	
90	0.75	174.836	24.3322	-12.5106	163.357	39.4869	-44.4169	147.156	27.7648	-71.8721	133.205	1.82286	-69.5601	183.877	8.68845	-91.057	159.619	15.3961	-108.61	144.891	26.4334	-80.65	174.827	-12.8861	-94.0949	149.351	1.8072	-110.821	137.024	7.48683	-74.7258	163.158	-26.8319	-88.5812	135.616	-13.6712	-98.7062	129.992	-5.67954	-67.2445	153.575	-39.879	-73.9024	131.759	-29.9345	-88.6008	121.778	-18.8285	-64.8619	181.45	-34.8889	-38.7479	181.935	-37.4824	-4.34567	196.391	-6.19673	-23.3253	
91	0.758333	165.055	25.2092	-10.2425	150.825	42.2258	-41.1121	137.573	30.4057	-63.2783	130.939	2.88835	-70.9816	179.058	17.4354	-86.8572	152.268	25.9186	-104.485	137.986	26.8847	-75.7988	176.234	-0.580391	-94.0006	145.821	6.62916	-107.807	135.353	6.26539	-71.0432	168.672	-16.4906	-89.8023	137.634	-14.5946	-98.7261	129.216	-7.03022	-69.7825	161.89	-37.6595	-75.9485	137.721	-27.2073	-88.0724	125.777	-22.7841	-63.8598	188.038	-27.0579	-38.3903	187.372	-32.9708	-5.70425	192.147	3.74	-17.453	
92	0.766667	154.744	28.9258	-8.97744	139.306	38.4236	-35.1957	128.982	30.4868	-63.7099	132.395	2.52809	-67.627	172.886	30.998	-83.1234	145.513	31.2906	-101.93	131.359	24.5158	-73.1026	176.812	11.5196	-91.5892	146.739	13.1157	-106.61	134.259	2.04053	-73.531	171.847	-6.1408	-87.9036	146.192	-11.2228	-101.459	132.051	-12.0201	-65.9277	169.735	-27.4009	-80.0635	146.94	-24.4158	-90.0946	131.225	-24.8579	-61.4399	192.176	-16.8983	-35.4209	191.656	-25.6554	-3.70294	185.801	12.3431	-14.8336	
93	0.775	145.491	27.1408	-5.18362	126.278	38.2415	-31.7815	124.587	28.2614	-64.6101	130.066	2.0193	-73.3785	166.174	38.5281	-78.0713	141.364	36.7378	-99.5389	127.766	21.1259	-70.6386	174.178	23.9678	-85.6819	146.223	13.5809	-105.504	134.859	3.55867	-70.0989	173.497	2.42626	-86.7019	150.295	-5.84703	-100.01	133.182	-10.961	-72.6217	174.602	-18.1457	-77.2999	151.139	-22.691	-89.8092	138.134	-28.0633	-61.6408	194.151	-7.66867	-34.7331	190.424	-13.9396	-0.0155312	181.844	21.2192	-13.5732	
94	0.783333	136.604	21.5134	0.10846	116.87	34.1819	-26.4256	116.147	28.5602	-61.7785	131.101	2.45593	-69.662	159.063	41.9088	-75.3122	134.951	34.5734	-96.1637	121.495	22.859	-68.716	169.903	31.4602	-83.9573	144.765	19.2596	-103.168	135.061	2.40681	-69.1863	175.043	10.6001	-84.7757	153.711	-2.59298	-99.095	138.195	-15.0589	-71.7755	177.063	-8.42911	-72.1336	155.58	-14.8462	-88.5685	142.681	-27.7552	-60.7717	191.537	1.08655	-30.9501	191.253	-8.19335	-3.74083	173.107	25.7228	-5.08746	
95	0.791667	127.302	19.2263	0.85257	107.919	29.5506	-25.1203	111.019	25.0949	-61.2273	128.379	5.11366	-66.7606	148.841	47.5911	-68.3315	130.448	35.4182	-93.7912	118.942	18.7203	-68.3107	166.389	34.9009	-78.589	143.555	23.8212	-102.241	135.301	0.325329	-71.9357	172.831	19.4817	-78.3165	155.081	4.45166	-97.9318	141.717	-12.9101	-71.7576	178.887	0.932408	-71.4792	159.544	-12.0328	-87.6502	150.709	-26.5138	-64.7751	188.101	11.9226	-25.087	189.388	-1.07548	1.10847	166.246	26.3472	-6.36722	
96	0.8	120.742	13.8422	1.92134	106.722	21.0964	-25.7715	106.503	19.4472	-55.4974	127.202	3.1827	-67.5916	139.705	49.1989	-65.8323	124.296	39.0216	-91.8089	118.825	11.9859	-71.4649	156.104	42.4944	-78.749	143.35	24.2388	-101.077	132.862	0.107776	-73.8049	171.526	23.2871	-75.3824	154.208	5.27693	-95.6247	141.08	-9.55015	-69.7267	183.083	5.86916	-69.4206	160.968	-4.47095	-85.6474	154.301	-25.8797	-68.3262	181.672	16.132	-20.341	183.257	4.94928	4.12904	156.657	25.5456	0.929446	
97	0.808333	115.4	5.33339	1.84796	101.718	12.7294	-23.6111	99.1157	13.64	-55.6794	125.819	0.707973	-66.3699	134.505	46.1124	-63.282	121.806	34.7573	-90.5774	116.514	8.62532	-71.247	148.735	45.1332	-75.618	136.854	28.315	-99.2551	133.177	-1.92166	-72.2174	165.182	29.3642	-76.1827	156.978	11.0688	-95.6645	147.469	-11.4867	-71.6894	176.897	12.5647	-66.1285	164.748	-4.32157	-86.774	159	-26.1579	-65.9835	178.154	19.7479	-21.1063	180.587	8.54243	5.78942	148.023	24.8401	0.487445	
98	0.816667	112.959	-3.21423	4.17347	94.815	2.89402	-22.7094	99.8683	5.36508	-53.8115	125.058	-3.29145	-68.7319	128.247	42.2366	-62.6622	119.93	30.9477	-91.6893	111.398	3.20803	-71.6262	145.122	43.475	-74.0239	134.646	24.3554	-100.053	130.221	-3.46947	-76.3179	161.753	29.6021	-71.4516	153.978	13.7496	-95.2523	146.842	-10.9552	-74.6627	178.636	14.2	-65.4919	160.223	-0.0912559	-85.5527	158.897	-22.6937	-67.5584	170.383	20.6384	-17.3928	177.683	7.38917	8.999	140.38	22.8008	-0.77239	
99	0.825	111.066	-5.54711	2.49598	94.8713	-2.12112	-24.0231	98.7881	1.24517	-57.3373	124.401	-6.5138	-70.4183	120.132	38.3452	-63.2003	113.386	29.2719	-92.1822	111.935	-1.60314	-74.1559	137.365	41.1396	-73.901	132.273	24.1964	-100.093	129.039	-7.16046	-75.9903	156.811	28.7285	-73.4114	153.321	9.25467	-95.5668	148.51	-13.9511	-73.4744	174.748	15.8108	-67.4507	165.058	-2.17156	-87.4391	158.084	-25.3985	-68.7893	167.972	20.819	-20.8389	176.24	9.00441	8.02773	137.483	18.6053	-0.600263	
100	0.833333	111.332	-9.41474	1.76448	90.4269	-5.50921	-24.9912	94.0851	-5.64684	-55.9607	121.945	-9.81677	-66.512	120.515	34.0745	-65.1623	111.564	22.1699	-95.1148	111.497	-5.45158	-79.8745	136.935	35.5073	-74.9609	131.847	17.6271	-101.625	130.177	-11.0375	-77.4521	155.526	26.283	-72.32	149.306	7.39493	-97.1279	145.242	-16.7411	-71.146	171.633	12.9371	-64.2842	161.382	0.316337	-86.9197	160.714	-26.7357	-69.8936	162.738	19.0227	-19.2322	173.405	8.84944	6.52448	135.866	18.3961	-1.09698	
101	0.841667	107.21	-10.1386	-0.73685	92.7649	-7.90039	-26.5152	93.5721	-6.51585	-59.8804	116.29	-13.7016	-71.5525	113.856	32.4249	-67.5999	108.315	19.9558	-95.6227	110.492	-10.4936	-77.7805	133.866	33.3672	-77.679	127.553	16.0048	-101.957	129.125	-15.5475	-74.3374	149.558	24.8711	-73.4942	147.477	5.51182	-97.1982	143.199	-19.0529	-74.3245	168.253	10.407	-63.0547	160.244	-3.06952	-86.7044	158.453	-29.0664	-70.8976	163.118	16.1922	-17.8384	168.059	6.27794	7.7709	135.088	15.8999	-2.68649	
102	0.85	110.438	-13.4864	-0.389293	89.6794	-11.121	-25.6384	92.0814	-9.65949	-59.8909	115.035	-16.9328	-69.0243	115.347	28.3655	-65.6697	110.203	17.7704	-96.3185	110.022	-12.7474	-79.5622	133.42	30.4841	-75.8295	128.574	10.7389	-103.064	132.58	-17.8966	-73.3274	152.012	21.5551	-72.5774	146.845	4.66812	-97.8476	143.511	-21.5666	-76.1135	167.005	10.5678	-66.648	161.07	-4.55045	-87.6769	160.115	-30.2518	-72.4947	160.246	18.1485	-22.1617	169.427	6.27405	8.66709	134.895	13.7414	-2.4452	
103	0.858333	107.475	-14.5167	2.39218	90.6503	-11.9454	-24.836	93.8626	-10.9179	-55.9956	119.788	-15.9094	-70.6878	117.552	27.9045	-68.5425	107.948	13.5945	-96.1181	106.497	-13.8484	-76.8915	135.463	28.5275	-76.5163	126.075	9.50523	-102.092	127.356	-18.1335	-75.4324	149.95	21.6669	-75.0481	148.33	3.79087	-97.5614	145.302	-22.3911	-76.1803	168.881	9.94398	-68.182	160.398	-4.50226	-88.3076	158.094	-32.1743	-73.5768	162.736	17.3747	-21.333	167.496	7.20638	8.22862	130.248	13.758	-0.907014	
